<?xml version="1.0" encoding="UTF-8" standalone="no"?>
<!-- Generator: Adobe Illustrator 22.1.0, SVG Export Plug-In . SVG Version: 6.00 Build 0)  -->

<svg
   xmlns:dc="http://purl.org/dc/elements/1.1/"
   xmlns:cc="http://creativecommons.org/ns#"
   xmlns:rdf="http://www.w3.org/1999/02/22-rdf-syntax-ns#"
   xmlns:svg="http://www.w3.org/2000/svg"
   xmlns="http://www.w3.org/2000/svg"
   xmlns:sodipodi="http://sodipodi.sourceforge.net/DTD/sodipodi-0.dtd"
   xmlns:inkscape="http://www.inkscape.org/namespaces/inkscape"
   version="1.1"
   id="Layer_1"
   x="0px"
   y="0px"
   viewBox="0 0 104.88434 110.7"
   xml:space="preserve"
   sodipodi:docname="favicon.svg"
   width="104.88434"
   height="110.7"
   inkscape:version="0.92.2 5c3e80d, 2017-08-06"><metadata
     id="metadata17"><rdf:RDF><cc:Work
         rdf:about=""><dc:format>image/svg+xml</dc:format><dc:type
           rdf:resource="http://purl.org/dc/dcmitype/StillImage" /><dc:title></dc:title></cc:Work></rdf:RDF></metadata><defs
     id="defs15" /><sodipodi:namedview
     pagecolor="#ffffff"
     bordercolor="#666666"
     borderopacity="1"
     objecttolerance="10"
     gridtolerance="10"
     guidetolerance="10"
     inkscape:pageopacity="0"
     inkscape:pageshadow="2"
     inkscape:window-width="1220"
     inkscape:window-height="852"
     id="namedview13"
     showgrid="false"
     fit-margin-top="0"
     fit-margin-left="0"
     fit-margin-right="0"
     fit-margin-bottom="0"
     inkscape:zoom="1.2278876"
     inkscape:cx="52.38434"
     inkscape:cy="55.300002"
     inkscape:window-x="315"
     inkscape:window-y="122"
     inkscape:window-maximized="0"
     inkscape:current-layer="Layer_1"
     inkscape:snap-page="true" /><style
     type="text/css"
     id="style2">
	.st1{fill:#243645;}
	.st2{fill-opacity:0;fill:#FFFFFF;}
  @media (prefers-color-scheme: dark) {
      .st2 {fill-opacity:1;}
    }
</style><rect
     style="opacity:1;stroke:none;"
     class="st2"
     id="rect871"
     width="104.88434"
     height="110.7"
     x="0"
     y="0"
     ry="20.36017"
     rx="20.36017" /><path
     class="st1"
     d="m 52.484342,106.1 c -23.8,0 -43.2000005,-19.4 -43.2000005,-43.2 0,-4.7 0.8000005,-9.2 2.2000005,-13.5 2.4,-3.1 6.2,-5.9 12.5,-8.2 8.9,5.5 17.7,8.1 26.3,8.1 5.6,0 11,-1.1 16.4,-3.2 3.4,-2.5 6.9,-3.6 10.3,-3.6 7.5,0 14.3,5.3 17.9,12.5 0.5,2.5 0.7,5.2 0.7,7.9 0.1,23.8 -19.3,43.2 -43.1,43.2 m -5.9,-106.1 c -13.6,0.8 -24.2,5 -25.3,16.7 C 8.7843415,19.7 -1.0156585,27.3 0.08434153,50.3 1.1843415,49.2 1.9843415,47.7 3.8843415,47.7 c -0.5,4.3 -0.2,8.4 0.9,11.5 -0.1,1.2 -0.2,2.5 -0.2,3.7 0,26.4 21.4000005,47.8 47.8000005,47.8 26.4,0 47.899998,-21.4 47.899998,-47.8 0,-0.1 0,-0.1 0,-0.2 1.8,-3.2 2.8,-7.5 1.6,-11.7 1.5,1.5 2.6,3.8 3,6.4 -1.5,-31 -14.699998,-46.5 -36.299998,-49.9 1.3,-1.6 3.7,-2.4 6.8,-2.4 1.4,0 2.9,0.2 4.6,0.5 -7.6,-3.5 -14.2,-5.1 -19.8,-5.1 -5.8,0 -10.7,1.6 -15,4.3 -1.6,-1.7 -0.8,-3.6 1.4,-4.8"
     id="path4"
     inkscape:connector-curvature="0"
     style="fill:#243645" /><path
     class="st1"
     d="m 41.584342,59.8 c -2.5,0 -4.6,2.1 -4.6,4.6 0,2.5 2.1,4.6 4.6,4.6 2.5,0 4.6,-2.1 4.6,-4.6 0,-0.4 -0.1,-0.8 -0.1,-1.1 h -3.3 l 0.6,-3.2 c -0.6,-0.1 -1.2,-0.3 -1.8,-0.3"
     id="path6"
     inkscape:connector-curvature="0"
     style="fill:#243645" /><path
     class="st1"
     d="m 63.284342,59.8 c -2.5,0 -4.6,2.1 -4.6,4.6 0,2.5 2.1,4.6 4.6,4.6 2.5,0 4.6,-2.1 4.6,-4.6 0,-0.4 0,-0.7 -0.1,-1 h -3.1 l 0.6,-3.2 c -0.6,-0.2 -1.3,-0.4 -2,-0.4"
     id="path8"
     inkscape:connector-curvature="0"
     style="fill:#243645" /><path
     class="st1"
     d="m 60.084342,78.7 c -1.1,-0.5 -2.2,-0.7 -3.1,-0.7 -1.9,0 -3.4,0.9 -4.5,2.2 -1.1,-1.3 -2.6,-2.2 -4.5,-2.2 -1,0 -2,0.2 -3.1,0.7 -5.1,2.2 -6.5,7 -12.7,8.2 0,0 3.3,3.3 9.6,3.3 2.9,0 6.5,-0.7 10.8,-2.9 4.2,2.1 7.8,2.9 10.8,2.9 6.3,0 9.6,-3.3 9.6,-3.3 -6.4,-1.2 -7.8,-5.9 -12.9,-8.2 z"
     id="path10"
     inkscape:connector-curvature="0"
     style="fill:#243645" /></svg>