<?xml version="1.0" encoding="UTF-8"?>
<svg width="70.556mm" height="73.547mm" version="1.1" viewBox="0 0 250 260.59851" xmlns="http://www.w3.org/2000/svg" xmlns:cc="http://creativecommons.org/ns#" xmlns:dc="http://purl.org/dc/elements/1.1/" xmlns:rdf="http://www.w3.org/1999/02/22-rdf-syntax-ns#">
<metadata>
<rdf:RDF>
<cc:Work rdf:about="">
<dc:format>image/svg+xml</dc:format>
<dc:type rdf:resource="http://purl.org/dc/dcmitype/StillImage"/>
<dc:title/>
</cc:Work>
</rdf:RDF>
</metadata>
<g transform="matrix(.72568 0 0 .72568 -157.63 -249.53)">
<g transform="translate(231.45 375.97)">
<circle cx="172.23" cy="168.96" r="153.04" fill="#fff" stroke="#2c3e50" stroke-linecap="round" stroke-linejoin="round" stroke-width="10"/>
<g transform="translate(-111.91 -289.94)" fill="#2c3e50" stroke="#2c3e50" stroke-linecap="round" stroke-linejoin="round" stroke-width="10">
<ellipse cx="257.14" cy="452.36" rx="8.57" ry="10.71">
<animateTransform attributeName="transform" begin="0s" dur="3s" from="0 0" keyTimes="0; 0.33; 0.43; 0.66; 0.89; 1.0" repeatCount="indefinite" to="25 0" type="translate" values="0 0; 0 0; 25 0; 0 0; -25 0; 0 0"/>
<animate attributeName="ry" begin="0s" dur="3s" keyTimes="0; 0.2; 0.25; 0.30; 1.0" repeatCount="indefinite" values="10.71; 10.71; 0.25; 10.71; 10.71;"/>
<animate attributeName="rx" begin="0s" dur="3s" keyTimes="0; 0.2; 0.25; 0.30; 1.0" repeatCount="indefinite" values="8.57; 8.57; 4; 8.57; 8.57;"/>
</ellipse>
<ellipse cx="311.14" cy="452.36" rx="8.57" ry="10.71">
<animateTransform attributeName="transform" begin="0s" dur="3s" from="0 0" keyTimes="0; 0.33; 0.43; 0.66; 0.89; 1.0" repeatCount="indefinite" to="25 0" type="translate" values="0 0; 0 0; 25 0; 0 0; -25 0; 0 0"/>
<animate attributeName="ry" begin="0s" dur="3s" keyTimes="0; 0.2; 0.25; 0.30; 1.0" repeatCount="indefinite" values="10.71; 10.71; 0.25; 10.71; 10.71;"/>
<animate attributeName="rx" begin="0s" dur="3s" keyTimes="0; 0.2; 0.25; 0.30; 1.0" repeatCount="indefinite" values="8.57; 8.57; 4; 8.57; 8.57;"/>
</ellipse>
</g>
<path d="m162.78 235.72h-100.15s72.712-47.428 100.07-26.414c6.9832 5.3628 0.0781 26.414 0.0781 26.414z" fill="#2c3e50" fill-rule="evenodd" stroke="#2c3e50" stroke-linecap="round" stroke-linejoin="round" stroke-width="5.4178">
<animateTransform attributeName="transform" begin="0s" dur="3s" keyTimes="0; 0.04; 0.12; 0.20; 1" repeatCount="indefinite" type="rotate" values="0 112 235; 0 112 235; -10 112 235; 0 112 235; 0 112 235;"/>
</path>
<path d="m181.68 235.72h100.15s-72.712-47.428-100.07-26.414c-6.9832 5.3628-0.0781 26.414-0.0781 26.414z" fill="#2c3e50" fill-rule="evenodd" stroke="#2c3e50" stroke-linecap="round" stroke-linejoin="round" stroke-width="5.4178">
<animateTransform attributeName="transform" begin="0s" dur="3s" keyTimes="0; 0.04; 0.12; 0.20; 1" repeatCount="indefinite" type="rotate" values="0 231 235; 0 231 235; 10 231 235; 0 231 235; 0 231 235;"/>
</path>
<g transform="translate(-186.45 115.13)">
<g transform="translate(-593.37 -820.5)" fill="#2c3e50" fill-rule="evenodd" stroke="#2c3e50" stroke-width="1px">
<path d="m939.44 721.03s-71.721 16.162-105.06 54.548c-33.335 38.386-68.69 34.345-68.69 34.345s62.854 14.61 105.42 3.8673c45.406-11.458 76.404-33.162 68.323-92.761z"></path>
<path d="m914.19 737.19s28.284-6.0609 39.396-29.294c11.112-23.234 9.0914-34.345 9.0914-34.345s32.325 43.437 5.0508 65.66c-27.274 22.223-53.538-2.0203-53.538-2.0203z"></path>
<path d="m958.63 731.13s10.102-11.112 39.396-15.152c29.294-4.0406 73.741 14.142 73.741 14.142s-37.376 12.122-67.68 26.264c-30.305 14.142-45.457-25.254-45.457-25.254z"></path>
<path d="m943.48 729.11s38.386 11.112 91.924 16.162c53.538 5.0508 69.7 4.0406 69.7 4.0406s-26.264 38.876-84.853 47.967c-58.589 9.0914-105.06-33.825-105.06-33.825z"></path>
</g>
</g>
</g>
</g>
</svg>
