<svg xmlns:dc="http://purl.org/dc/elements/1.1/" xmlns:cc="http://creativecommons.org/ns#" xmlns:rdf="http://www.w3.org/1999/02/22-rdf-syntax-ns#" xmlns:svg="http://www.w3.org/2000/svg" xmlns="http://www.w3.org/2000/svg" xmlns:sodipodi="http://sodipodi.sourceforge.net/DTD/sodipodi-0.dtd" xmlns:inkscape="http://www.inkscape.org/namespaces/inkscape" sodipodi:docname="powered_by_en.svg" inkscape:version="1.0 (4035a4f, 2020-05-01)" id="svg8" version="1.1" viewBox="0 0 165 23" height="46" width="328">
  <defs id="defs2">
    <rect id="rect106" height="80.469658" width="75.548935" y="211.95805" x="192.58051" />
  </defs>
  <sodipodi:namedview inkscape:window-maximized="0" inkscape:window-y="23" inkscape:window-x="0" inkscape:window-height="915" inkscape:window-width="1252" inkscape:snap-text-baseline="false" showgrid="false" inkscape:document-rotation="0" inkscape:current-layer="layer1" inkscape:document-units="mm" inkscape:cy="496.57053" inkscape:cx="388.24702" inkscape:zoom="0.58781078" inkscape:pageshadow="2" inkscape:pageopacity="0.0" borderopacity="1.0" bordercolor="#666666" pagecolor="#ffffff" id="base" />
  <metadata id="metadata5">
    <rdf:RDF>
      <cc:Work rdf:about="">
        <dc:format>image/svg+xml</dc:format>
        <dc:type rdf:resource="http://purl.org/dc/dcmitype/StillImage" />
        <dc:title></dc:title>
      </cc:Work>
    </rdf:RDF>
  </metadata>
  <g id="layer1" inkscape:groupmode="layer" inkscape:label="Layer 1">
    <g transform="translate(-20.255243,-130.9839)" style="font-size:12.7px;line-height:1.05;font-family:Lato;-inkscape-font-specification:Lato;fill:#243645;fill-opacity:1;stroke-width:0.264583" id="text12" aria-label="Powered by">
      <g id="g997">
        <path d="m 25.014772,142.27325 q 0.52705,0 0.9271,-0.1397 0.4064,-0.1397 0.67945,-0.38735 0.2794,-0.254 0.4191,-0.60325 0.1397,-0.34925 0.1397,-0.76835 0,-0.86995 -0.53975,-1.3589 -0.5334,-0.48895 -1.6256,-0.48895 h -1.4605 v 3.7465 z m 0,-4.71805 q 0.8636,0 1.4986,0.2032 0.64135,0.19685 1.06045,0.56515 0.4191,0.3683 0.6223,0.889 0.20955,0.5207 0.20955,1.16205 0,0.635 -0.22225,1.16205 -0.22225,0.52705 -0.65405,0.90805 -0.42545,0.381 -1.06045,0.5969 -0.62865,0.20955 -1.45415,0.20955 h -1.4605 v 3.4036 h -1.22555 v -9.09955 z" style="font-size:12.7px;fill:#243645;fill-opacity:1;stroke-width:0.264583" id="path969" />
        <path d="m 32.041245,140.1206 q 0.70485,0 1.27,0.23495 0.56515,0.23495 0.9652,0.66675 0.40005,0.4318 0.6096,1.04775 0.2159,0.6096 0.2159,1.36525 0,0.762 -0.2159,1.3716 -0.20955,0.6096 -0.6096,1.0414 -0.40005,0.4318 -0.9652,0.66675 -0.56515,0.2286 -1.27,0.2286 -0.7112,0 -1.2827,-0.2286 -0.56515,-0.23495 -0.9652,-0.66675 -0.40005,-0.4318 -0.61595,-1.0414 -0.20955,-0.6096 -0.20955,-1.3716 0,-0.75565 0.20955,-1.36525 0.2159,-0.61595 0.61595,-1.04775 0.40005,-0.4318 0.9652,-0.66675 0.5715,-0.23495 1.2827,-0.23495 z m 0,5.7404 q 0.9525,0 1.4224,-0.635 0.4699,-0.64135 0.4699,-1.78435 0,-1.14935 -0.4699,-1.7907 -0.4699,-0.64135 -1.4224,-0.64135 -0.4826,0 -0.84455,0.1651 -0.3556,0.1651 -0.5969,0.47625 -0.23495,0.31115 -0.3556,0.76835 -0.1143,0.45085 -0.1143,1.02235 0,1.143 0.4699,1.78435 0.47625,0.635 1.44145,0.635 z" style="font-size:12.7px;fill:#243645;fill-opacity:1;stroke-width:0.264583" id="path971" />
        <path d="m 45.294885,140.2222 -2.0828,6.43255 h -0.89535 q -0.1651,0 -0.2286,-0.2159 l -1.4224,-4.36245 q -0.0508,-0.14605 -0.08255,-0.2921 -0.03175,-0.1524 -0.0635,-0.29845 -0.03175,0.14605 -0.0635,0.29845 -0.03175,0.14605 -0.08255,0.29845 l -1.4478,4.3561 q -0.05715,0.2159 -0.254,0.2159 h -0.8509 l -2.0828,-6.43255 h 0.889 q 0.13335,0 0.22225,0.0699 0.09525,0.0699 0.127,0.1651 l 1.2319,4.1402 q 0.10795,0.4572 0.17145,0.8636 0.05715,-0.20955 0.1143,-0.42545 0.0635,-0.2159 0.13335,-0.43815 l 1.3589,-4.1656 q 0.03175,-0.0952 0.10795,-0.15875 0.08255,-0.0635 0.19685,-0.0635 h 0.4953 q 0.127,0 0.20955,0.0635 0.08255,0.0635 0.1143,0.15875 l 1.32715,4.1656 q 0.06985,0.22225 0.127,0.43815 0.05715,0.2159 0.10795,0.42545 0.03175,-0.20955 0.0762,-0.4191 0.0508,-0.2159 0.10795,-0.4445 l 1.2573,-4.1402 q 0.03175,-0.1016 0.12065,-0.1651 0.0889,-0.0699 0.20955,-0.0699 z" style="font-size:12.7px;fill:#243645;fill-opacity:1;stroke-width:0.264583" id="path973" />
        <path d="m 50.601502,142.7368 q 0,-0.3937 -0.1143,-0.71755 -0.10795,-0.3302 -0.32385,-0.56515 -0.20955,-0.2413 -0.51435,-0.3683 -0.3048,-0.13335 -0.69215,-0.13335 -0.8128,0 -1.28905,0.47625 -0.4699,0.4699 -0.5842,1.3081 z m 0.9144,3.01625 q -0.20955,0.254 -0.50165,0.4445 -0.2921,0.18415 -0.62865,0.3048 -0.3302,0.12065 -0.6858,0.1778 -0.3556,0.0635 -0.70485,0.0635 -0.66675,0 -1.2319,-0.22225 -0.5588,-0.2286 -0.97155,-0.6604 -0.4064,-0.43815 -0.635,-1.0795 -0.2286,-0.64135 -0.2286,-1.4732 0,-0.6731 0.2032,-1.2573 0.20955,-0.5842 0.5969,-1.00965 0.38735,-0.4318 0.94615,-0.6731 0.5588,-0.24765 1.2573,-0.24765 0.57785,0 1.0668,0.19685 0.4953,0.1905 0.8509,0.5588 0.36195,0.36195 0.56515,0.9017 0.2032,0.5334 0.2032,1.2192 0,0.2667 -0.05715,0.3556 -0.05715,0.0889 -0.2159,0.0889 h -4.29895 q 0.01905,0.6096 0.1651,1.06045 0.1524,0.45085 0.4191,0.75565 0.2667,0.29845 0.635,0.45085 0.3683,0.14605 0.8255,0.14605 0.42545,0 0.73025,-0.0952 0.31115,-0.1016 0.5334,-0.2159 0.22225,-0.1143 0.3683,-0.20955 0.1524,-0.1016 0.26035,-0.1016 0.1397,0 0.2159,0.10795 z" style="font-size:12.7px;fill:#243645;fill-opacity:1;stroke-width:0.264583" id="path975" />
        <path d="m 54.066618,141.51125 q 0.3048,-0.6604 0.7493,-1.0287 0.4445,-0.37465 1.08585,-0.37465 0.2032,0 0.38735,0.0445 0.1905,0.0444 0.33655,0.1397 l -0.08255,0.84455 q -0.0381,0.15875 -0.1905,0.15875 -0.0889,0 -0.26035,-0.0381 -0.17145,-0.0381 -0.38735,-0.0381 -0.3048,0 -0.5461,0.0889 -0.23495,0.0889 -0.42545,0.2667 -0.18415,0.17145 -0.33655,0.4318 -0.14605,0.254 -0.2667,0.5842 v 4.064 h -1.13665 v -6.43255 h 0.6477 q 0.18415,0 0.254,0.0699 0.06985,0.0699 0.09525,0.2413 z" style="font-size:12.7px;fill:#243645;fill-opacity:1;stroke-width:0.264583" id="path977" />
        <path d="m 61.664391,142.7368 q 0,-0.3937 -0.1143,-0.71755 -0.10795,-0.3302 -0.32385,-0.56515 -0.20955,-0.2413 -0.51435,-0.3683 -0.3048,-0.13335 -0.69215,-0.13335 -0.8128,0 -1.28905,0.47625 -0.4699,0.4699 -0.5842,1.3081 z m 0.9144,3.01625 q -0.20955,0.254 -0.50165,0.4445 -0.2921,0.18415 -0.62865,0.3048 -0.3302,0.12065 -0.6858,0.1778 -0.3556,0.0635 -0.70485,0.0635 -0.66675,0 -1.2319,-0.22225 -0.5588,-0.2286 -0.97155,-0.6604 -0.4064,-0.43815 -0.635,-1.0795 -0.2286,-0.64135 -0.2286,-1.4732 0,-0.6731 0.2032,-1.2573 0.20955,-0.5842 0.5969,-1.00965 0.38735,-0.4318 0.94615,-0.6731 0.5588,-0.24765 1.2573,-0.24765 0.57785,0 1.0668,0.19685 0.4953,0.1905 0.8509,0.5588 0.36195,0.36195 0.56515,0.9017 0.2032,0.5334 0.2032,1.2192 0,0.2667 -0.05715,0.3556 -0.05715,0.0889 -0.2159,0.0889 h -4.29895 q 0.01905,0.6096 0.1651,1.06045 0.1524,0.45085 0.4191,0.75565 0.2667,0.29845 0.635,0.45085 0.3683,0.14605 0.8255,0.14605 0.42545,0 0.73025,-0.0952 0.31115,-0.1016 0.5334,-0.2159 0.22225,-0.1143 0.3683,-0.20955 0.1524,-0.1016 0.26035,-0.1016 0.1397,0 0.2159,0.10795 z" style="font-size:12.7px;fill:#243645;fill-opacity:1;stroke-width:0.264583" id="path979" />
        <path d="m 68.247357,141.75255 q -0.3175,-0.42545 -0.6858,-0.59055 -0.3683,-0.17145 -0.8255,-0.17145 -0.89535,0 -1.37795,0.64135 -0.4826,0.64135 -0.4826,1.8288 0,0.62865 0.10795,1.0795 0.10795,0.4445 0.3175,0.7366 0.20955,0.28575 0.51435,0.4191 0.3048,0.13335 0.69215,0.13335 0.5588,0 0.97155,-0.254 0.4191,-0.254 0.76835,-0.71755 z m 1.1303,-4.45135 v 9.35355 h -0.6731 q -0.2413,0 -0.3048,-0.23495 l -0.1016,-0.78105 q -0.41275,0.4953 -0.9398,0.8001 -0.52705,0.3048 -1.2192,0.3048 -0.55245,0 -1.0033,-0.20955 -0.45085,-0.2159 -0.76835,-0.62865 -0.3175,-0.41275 -0.48895,-1.0287 -0.17145,-0.61595 -0.17145,-1.41605 0,-0.7112 0.1905,-1.3208 0.1905,-0.61595 0.5461,-1.0668 0.3556,-0.45085 0.86995,-0.70485 0.5207,-0.26035 1.1684,-0.26035 0.59055,0 1.00965,0.2032 0.42545,0.19685 0.75565,0.55245 v -3.56235 z" style="font-size:12.7px;fill:#243645;fill-opacity:1;stroke-width:0.264583" id="path981" />
        <path d="m 75.561366,145.10535 q 0.31115,0.4191 0.679449,0.59055 0.37465,0.17145 0.81915,0.17145 0.90805,0 1.39065,-0.64135 0.4826,-0.64135 0.4826,-1.91135 0,-1.1811 -0.4318,-1.73355 -0.42545,-0.5588 -1.2192,-0.5588 -0.55245,0 -0.9652,0.254 -0.406399,0.254 -0.755649,0.71755 z m 0,-3.95605 q 0.4064,-0.4699 0.914399,-0.7493 0.51435,-0.2794 1.1811,-0.2794 0.56515,0 1.016,0.2159 0.4572,0.2159 0.7747,0.62865 0.3175,0.4064 0.4826,0.9906 0.17145,0.5842 0.17145,1.31445 0,0.78105 -0.1905,1.4224 -0.1905,0.64135 -0.55245,1.09855 -0.3556,0.45085 -0.86995,0.70485 -0.51435,0.24765 -1.1557,0.24765 -0.635,0 -1.07315,-0.23495 -0.431799,-0.2413 -0.755649,-0.67945 l -0.05715,0.5842 q -0.0508,0.2413 -0.2921,0.2413 h -0.73025 v -9.35355 h 1.13665 z" style="font-size:12.7px;fill:#243645;fill-opacity:1;stroke-width:0.264583" id="path983" />
        <path d="m 86.919928,140.2222 -3.58775,8.3312 q -0.05715,0.127 -0.14605,0.2032 -0.08255,0.0762 -0.26035,0.0762 h -0.8382 l 1.17475,-2.5527 -2.6543,-6.0579 h 0.9779 q 0.14605,0 0.2286,0.0762 0.0889,0.0699 0.12065,0.15875 l 1.72085,4.0513 q 0.1016,0.2667 0.17145,0.5588 0.0889,-0.29845 0.1905,-0.56515 l 1.67005,-4.04495 q 0.0381,-0.1016 0.127,-0.1651 0.09525,-0.0699 0.20955,-0.0699 z" style="font-size:12.7px;fill:#243645;fill-opacity:1;stroke-width:0.264583" id="path985" />
      </g>
    </g>
    <g transform="matrix(0.26458333,0,0,0.26458333,74.0952,1.4650684)" id="g102">
      <path class="st1" d="m 124.66403,53.7 v 7.2 h -25.3 V 18.2 h 8.8 v 35.5 z" id="path5" inkscape:connector-curvature="0" style="fill:#243645" />
      <path class="st1" d="m 146.46403,53.8 c 1.4,0 2.7,-0.2 3.8,-0.7 1.1,-0.5 2.1,-1.2 2.9,-2 0.8,-0.9 1.4,-1.9 1.8,-3.2 0.4,-1.3 0.6,-2.7 0.6,-4.2 V 18.2 h 8.8 v 25.4 c 0,2.6 -0.4,5 -1.2,7.1 -0.8,2.2 -2,4 -3.6,5.6 -1.5,1.6 -3.4,2.8 -5.6,3.7 -2.2,0.9 -4.7,1.3 -7.5,1.3 -2.8,0 -5.3,-0.4 -7.5,-1.3 -2.2,-0.9 -4.1,-2.1 -5.7,-3.7 -1.5,-1.6 -2.7,-3.4 -3.6,-5.6 -0.8,-2.2 -1.2,-4.5 -1.2,-7.1 V 18.2 h 8.8 v 25.4 c 0,1.6 0.2,3 0.6,4.2 0.4,1.3 1,2.3 1.8,3.2 0.8,0.9 1.7,1.6 2.9,2 1.1,0.6 2.4,0.8 3.9,0.8 z" id="path7" inkscape:connector-curvature="0" style="fill:#243645" />
      <path class="st1" d="m 219.86403,18.2 v 42.6 h -7.8 V 34.7 c 0,-0.5 0,-1.1 0,-1.8 0,-0.6 0.1,-1.3 0.2,-1.9 l -12.2,23.1 c -0.7,1.3 -1.7,1.9 -3.1,1.9 h -1.2 c -0.7,0 -1.3,-0.2 -1.8,-0.5 -0.5,-0.3 -1,-0.8 -1.3,-1.4 l -12.3,-23.2 c 0.1,0.7 0.1,1.3 0.1,2 0,0.6 0.1,1.2 0.1,1.8 v 26.2 h -7.8 V 18.2 h 6.7 c 0.4,0 0.7,0 1,0 0.3,0 0.6,0.1 0.8,0.2 0.2,0.1 0.4,0.2 0.6,0.4 0.2,0.2 0.4,0.4 0.5,0.8 l 11.9,22.7 c 0.4,0.7 0.7,1.4 1,2.1 0.3,0.7 0.6,1.5 0.9,2.2 0.3,-0.8 0.6,-1.5 0.9,-2.3 0.3,-0.7 0.7,-1.5 1,-2.1 l 11.8,-22.7 c 0.2,-0.3 0.4,-0.6 0.6,-0.8 0.2,-0.2 0.4,-0.3 0.6,-0.4 0.2,-0.1 0.5,-0.1 0.8,-0.2 0.3,0 0.6,0 1,0 h 7 z" id="path9" inkscape:connector-curvature="0" style="fill:#243645" />
      <path class="st1" d="m 237.56403,25.1 v 11 h 14.2 v 6.7 h -14.2 V 54 h 18.3 v 6.9 h -27.2 V 18.2 h 27.2 v 6.9 z" id="path11" inkscape:connector-curvature="0" style="fill:#243645" />
      <path class="st1" d="m 271.36403,25.1 v 11 h 14.2 v 6.7 h -14.2 V 54 h 18.3 v 6.9 h -27.2 V 18.2 h 27.2 v 6.9 z" id="path13" inkscape:connector-curvature="0" style="fill:#243645" />
      <path class="st1" d="m 330.16403,60.8 h -8 c -1.5,0 -2.6,-0.6 -3.2,-1.7 l -8.1,-13.1 c -0.3,-0.5 -0.7,-0.9 -1.1,-1.1 -0.4,-0.2 -1,-0.4 -1.8,-0.4 h -3 v 16.2 h -8.8 V 18.2 h 13.4 c 3,0 5.5,0.3 7.6,0.9 2.1,0.6 3.8,1.5 5.2,2.6 1.4,1.1 2.3,2.4 3,3.9 0.6,1.5 0.9,3.2 0.9,5 0,1.4 -0.2,2.7 -0.6,4 -0.4,1.3 -1,2.4 -1.7,3.5 -0.8,1 -1.7,2 -2.8,2.8 -1.1,0.8 -2.4,1.4 -3.8,1.9 0.6,0.3 1.1,0.7 1.6,1.1 0.5,0.4 0.9,1 1.3,1.6 z m -20.6,-22.4 c 1.4,0 2.7,-0.2 3.7,-0.5 1,-0.4 1.9,-0.9 2.6,-1.5 0.7,-0.6 1.2,-1.4 1.5,-2.2 0.3,-0.9 0.5,-1.8 0.5,-2.8 0,-2 -0.7,-3.6 -2,-4.7 -1.3,-1.1 -3.4,-1.7 -6.1,-1.7 h -4.6 v 13.5 h 4.4 z" id="path15" inkscape:connector-curvature="0" style="fill:#243645" />
      <path class="st1" d="m 35.96403,72.8 c -16.4,0 -29.7,-13.3 -29.7,-29.7 0,-3.2 0.5,-6.3 1.5,-9.2 1.6,-2.1 4.3,-4.1 8.6,-5.6 6.1,3.8 12.2,5.6 18.1,5.6 3.8,0 7.6,-0.7 11.3,-2.2 2.3,-1.7 4.8,-2.4 7.1,-2.4 5.1,0 9.8,3.6 12.3,8.5 0.3,1.8 0.5,3.6 0.5,5.4 0,16.3 -13.3,29.6 -29.7,29.6 m -3.9,-72.8 c -9.3,0.5 -16.6,3.4 -17.4,11.4 -8.6,2.1 -15.39999995,7.3 -14.59999995,23.1 0.8,-0.8 1.29999995,-1.8 2.59999995,-1.8 -0.4,3 -0.1,5.8 0.6,7.9 -0.1,0.8 -0.1,1.7 -0.1,2.6 0,18.1 14.7,32.8 32.8,32.8 18.1,0 32.8,-14.7 32.8,-32.8 0,0 0,-0.1 0,-0.1 1.2,-2.2 1.9,-5.1 1.1,-8 1,1 1.8,2.6 2.1,4.4 -1,-21.3 -10.1,-31.9 -24.9,-34.3 0.9,-1.1 2.5,-1.7 4.7,-1.7 1,0 2,0.1 3.1,0.4 -5.2,-2.4 -9.7,-3.5 -13.6,-3.5 -4,0 -7.4,1.1 -10.3,3 -1,-1.4 -0.5,-2.7 1.1,-3.4" id="path17" inkscape:connector-curvature="0" style="fill:#243645" />
      <path class="st1" d="m 28.56403,41 c -1.7,0 -3.2,1.4 -3.2,3.2 0,1.7 1.4,3.2 3.2,3.2 1.7,0 3.2,-1.4 3.2,-3.2 0,-0.3 0,-0.5 -0.1,-0.8 h -2.3 l 0.4,-2.2 c -0.4,-0.1 -0.8,-0.2 -1.2,-0.2" id="path19" inkscape:connector-curvature="0" style="fill:#243645" />
      <path class="st1" d="m 43.46403,41 c -1.7,0 -3.2,1.4 -3.2,3.2 0,1.7 1.4,3.2 3.2,3.2 1.7,0 3.2,-1.4 3.2,-3.2 0,-0.2 0,-0.5 -0.1,-0.7 h -2.2 l 0.4,-2.2 c -0.4,-0.2 -0.8,-0.3 -1.3,-0.3" id="path21" inkscape:connector-curvature="0" style="fill:#243645" />
      <path class="st1" d="m 41.26403,54 c -0.8,-0.3 -1.5,-0.5 -2.2,-0.5 -1.3,0 -2.3,0.6 -3.1,1.5 -0.8,-0.9 -1.8,-1.5 -3.1,-1.5 -0.7,0 -1.4,0.2 -2.2,0.5 -3.5,1.5 -4.4,4.8 -8.7,5.6 0,0 2.3,2.3 6.6,2.3 2,0 4.5,-0.5 7.4,-2 2.9,1.5 5.4,2 7.4,2 4.3,0 6.6,-2.3 6.6,-2.3 -4.3,-0.8 -5.2,-4.1 -8.7,-5.6 z" id="path23" inkscape:connector-curvature="0" style="fill:#243645" />
    </g>
    <text style="font-size:10.58329999999999949px;line-height:1.25;font-family:Lato;-inkscape-font-specification:Lato;white-space:pre;shape-inside:url(#rect106);" id="text104" xml:space="preserve" />
  </g>
  <style type="text/css" id="style3">
    .st1 {
      fill: #243645;
    }

  </style>
</svg>
