<?xml version="1.0" standalone="no"?>
<!DOCTYPE svg PUBLIC "-//W3C//DTD SVG 20010904//EN"
 "http://www.w3.org/TR/2001/REC-SVG-20010904/DTD/svg10.dtd">
<svg version="1.0" xmlns="http://www.w3.org/2000/svg"
 width="888.000000pt" height="888.000000pt" viewBox="0 0 888.000000 888.000000"
 preserveAspectRatio="xMidYMid meet">
<metadata>
Created by potrace 1.11, written by Peter Selinger 2001-2013
</metadata>
<g transform="translate(0.000000,888.000000) scale(0.100000,-0.100000)"
fill="#000000" stroke="none">
<path d="M3877 8873 c-1 -1 -33 -4 -72 -7 -38 -3 -95 -9 -125 -11 -77 -8 -283
-39 -325 -49 -5 -2 -28 -6 -50 -10 -22 -4 -92 -21 -155 -38 -476 -124 -791
-317 -991 -609 -24 -35 -47 -65 -51 -67 -5 -2 -8 -9 -8 -16 0 -6 -13 -36 -28
-66 -27 -53 -61 -137 -66 -163 -2 -6 -10 -37 -19 -67 -19 -65 -33 -145 -36
-202 -1 -23 -7 -29 -43 -38 -55 -13 -119 -31 -138 -38 -8 -3 -19 -6 -25 -7
-37 -9 -202 -68 -212 -77 -7 -6 -13 -7 -13 -4 0 4 -12 1 -27 -7 -16 -8 -41
-20 -58 -27 -16 -7 -37 -16 -45 -20 -8 -5 -52 -27 -97 -49 -73 -37 -170 -95
-198 -119 -5 -4 -26 -19 -46 -32 -134 -92 -309 -273 -407 -423 -26 -40 -53
-78 -59 -85 -7 -7 -16 -24 -19 -38 -3 -13 -10 -24 -16 -24 -5 0 -7 -4 -3 -9 3
-5 0 -13 -5 -16 -15 -9 -80 -151 -123 -270 -47 -129 -98 -319 -112 -416 -3
-24 -10 -60 -15 -79 -4 -19 -8 -42 -8 -50 0 -8 -2 -27 -5 -42 -3 -15 -8 -62
-12 -105 -4 -43 -9 -89 -12 -103 -6 -32 -13 -640 -7 -640 3 0 16 11 30 25 14
14 22 25 19 25 -3 0 26 28 64 63 65 60 117 87 170 87 21 0 21 -2 14 -77 -14
-144 -7 -447 13 -553 2 -14 7 -43 10 -65 3 -22 9 -53 14 -70 5 -16 11 -41 14
-55 2 -14 11 -44 19 -67 9 -22 14 -43 11 -45 -12 -13 -18 -381 -9 -513 11
-148 17 -215 30 -305 7 -49 17 -115 22 -135 2 -11 6 -29 7 -40 9 -53 23 -119
42 -197 2 -10 6 -26 8 -37 31 -139 175 -548 214 -608 8 -13 12 -23 9 -23 -9 0
169 -344 213 -410 9 -14 47 -72 85 -130 64 -97 126 -185 166 -235 165 -204
364 -413 529 -555 41 -36 77 -67 80 -70 3 -3 21 -17 40 -30 19 -14 46 -34 60
-47 14 -12 50 -38 80 -59 30 -21 59 -41 65 -46 35 -29 255 -165 265 -164 3 1
19 -9 35 -20 112 -78 599 -294 636 -281 3 1 12 -3 20 -10 13 -10 231 -78 289
-89 14 -3 41 -9 60 -14 45 -12 100 -22 126 -25 11 -1 26 -5 33 -9 7 -4 15 -6
18 -3 3 3 15 2 27 -2 20 -8 67 -16 161 -27 22 -3 56 -7 75 -10 205 -25 670
-25 865 1 157 21 194 26 216 30 49 10 85 17 104 20 11 1 53 10 94 20 40 9 80
19 90 20 9 2 16 4 16 5 0 1 7 3 15 5 102 22 506 159 520 176 3 4 16 10 30 14
93 28 491 246 645 353 28 20 63 45 80 56 41 29 216 166 236 185 36 35 89 81
89 77 0 -14 279 275 365 379 28 33 52 62 55 65 27 27 230 304 230 314 0 3 13
25 30 49 37 56 94 153 137 237 18 35 38 69 43 74 6 6 10 18 10 27 0 10 4 19 8
21 9 3 73 145 121 268 12 30 26 64 31 75 8 18 30 86 36 110 2 6 10 30 20 55
21 57 63 205 70 245 3 17 14 64 24 105 10 41 21 93 25 115 3 22 7 47 10 55 2
8 6 35 9 60 4 25 8 56 10 70 15 90 25 211 32 394 4 134 6 143 40 215 36 75 92
233 101 280 2 13 10 51 17 85 19 94 18 295 -3 402 -11 59 -13 90 -7 87 13 -5
64 -75 90 -123 10 -19 22 -37 25 -40 19 -16 94 -220 93 -252 0 -10 3 -20 7
-22 4 -3 7 18 5 47 -5 89 -23 305 -29 357 -2 19 -7 60 -10 90 -3 30 -9 73 -12
95 -3 22 -7 51 -8 65 -4 37 -17 122 -21 145 -2 11 -9 49 -15 85 -18 103 -19
109 -24 133 -11 53 -27 134 -30 152 -2 11 -4 20 -5 20 -1 0 -3 9 -5 20 -2 11
-10 45 -18 76 -9 30 -18 66 -20 80 -2 13 -7 31 -10 39 -3 8 -12 35 -18 60 -7
25 -13 47 -14 50 -1 3 -5 19 -10 35 -4 17 -25 82 -47 145 -21 63 -40 120 -41
125 -8 32 -160 388 -177 415 -6 8 -19 33 -30 55 -55 114 -222 386 -241 393 -5
2 -9 8 -9 14 0 8 -52 81 -70 98 -3 3 -17 21 -31 40 -15 19 -52 64 -83 100 -31
36 -60 70 -65 75 -21 26 -192 185 -241 225 -30 25 -57 48 -60 51 -31 39 -410
289 -438 289 -5 0 -14 6 -20 13 -7 6 -16 12 -20 13 -4 0 -45 19 -92 41 -229
110 -442 184 -715 248 -101 23 -132 29 -217 41 -27 4 -48 11 -48 17 0 5 17 25
38 43 32 29 67 49 167 95 83 38 358 59 500 39 39 -6 88 -13 110 -16 22 -3 43
-8 47 -10 5 -3 8 -2 8 3 0 4 -28 21 -63 36 -100 46 -384 157 -400 157 -7 0
-17 3 -21 8 -4 4 -11 7 -14 7 -4 1 -32 9 -62 20 -30 10 -59 20 -65 21 -5 1
-59 16 -120 32 -96 26 -141 38 -180 48 -5 1 -48 9 -95 18 -47 8 -98 18 -115
22 -16 3 -50 7 -75 10 -25 2 -65 6 -90 9 -69 10 -414 13 -468 5 -26 -4 -74
-11 -107 -14 -58 -6 -100 -13 -100 -16 0 -1 -15 -3 -34 -6 -43 -5 -141 -30
-206 -52 -27 -9 -52 -17 -55 -17 -32 -5 -113 -38 -237 -96 -46 -22 -86 -39
-90 -39 -3 0 -14 -6 -22 -14 -9 -8 -40 -26 -69 -41 -29 -15 -55 -31 -58 -36
-7 -11 -33 21 -59 71 -22 42 -21 103 3 161 11 28 71 92 117 125 l30 22 -43 -2
c-24 0 -44 -2 -45 -3z m-1669 -3323 c7 0 12 -4 12 -9 0 -5 8 -11 18 -15 9 -3
31 -13 47 -23 111 -66 316 -172 430 -222 39 -17 78 -36 87 -41 10 -6 25 -10
33 -10 8 0 15 -5 15 -12 0 -6 3 -9 6 -6 3 4 29 -4 57 -17 117 -51 520 -175
622 -190 27 -5 77 -15 95 -20 8 -2 38 -7 65 -11 28 -3 59 -8 70 -10 19 -4 71
-11 145 -20 196 -21 538 -21 720 1 19 3 53 7 75 9 56 6 111 15 170 27 28 5 66
12 85 15 19 3 69 15 110 25 41 11 86 22 100 25 14 2 77 21 140 41 63 20 120
38 125 39 46 10 173 69 230 108 99 67 292 159 350 166 6 1 15 5 20 9 9 8 51
21 85 27 8 1 26 5 40 8 113 28 382 28 506 1 124 -26 295 -87 378 -134 152 -86
148 -84 170 -103 11 -10 23 -18 27 -18 4 0 14 -6 21 -13 7 -7 33 -28 58 -47
57 -43 247 -233 285 -285 17 -22 32 -42 36 -45 3 -3 26 -35 52 -72 79 -114
155 -253 160 -296 4 -22 9 -51 12 -64 3 -12 7 -41 10 -63 2 -22 6 -53 9 -70
16 -105 23 -512 11 -655 -14 -165 -24 -251 -36 -307 -5 -24 -9 -46 -8 -50 1
-5 0 -10 -1 -13 -3 -8 -7 -31 -14 -75 -4 -22 -11 -53 -16 -70 -5 -16 -11 -41
-13 -55 -2 -14 -6 -32 -9 -40 -6 -14 -30 -105 -34 -122 -1 -5 -3 -10 -4 -13
-1 -3 -4 -9 -5 -15 -1 -5 -3 -12 -4 -15 0 -3 -1 -8 -2 -12 -1 -5 -7 -24 -14
-43 -7 -19 -25 -69 -40 -110 -62 -170 -214 -493 -259 -550 -7 -8 -18 -28 -26
-45 -8 -16 -17 -32 -20 -35 -3 -3 -36 -52 -74 -109 -63 -96 -187 -260 -242
-321 -152 -168 -193 -210 -290 -299 -94 -86 -116 -105 -164 -141 -24 -19 -53
-42 -63 -51 -10 -9 -43 -34 -75 -55 -31 -21 -63 -45 -70 -51 -7 -7 -34 -25
-60 -40 -26 -15 -49 -30 -52 -33 -6 -8 -179 -110 -186 -110 -2 0 -22 -11 -44
-25 -22 -14 -40 -22 -40 -18 0 5 -4 3 -8 -3 -15 -23 -409 -192 -486 -209 -6
-1 -19 -5 -28 -9 -9 -4 -22 -9 -30 -10 -7 -1 -44 -12 -83 -24 -38 -12 -84 -24
-102 -27 -18 -3 -44 -10 -59 -15 -15 -6 -29 -8 -32 -5 -3 2 -10 1 -16 -4 -6
-5 -36 -12 -65 -16 -30 -3 -57 -8 -60 -10 -7 -3 -73 -15 -126 -21 -16 -2 -46
-6 -65 -9 -102 -14 -237 -20 -430 -20 -191 0 -393 10 -409 19 -3 2 -33 7 -66
11 -33 3 -82 11 -110 16 -27 5 -65 12 -84 15 -19 3 -44 10 -57 14 -12 5 -24 6
-27 4 -3 -3 -14 -1 -24 4 -10 6 -31 12 -48 15 -94 17 -364 104 -426 138 -13 7
-26 12 -29 12 -15 -1 -66 21 -245 108 -71 34 -132 65 -135 69 -3 3 -16 11 -30
18 -14 7 -43 23 -65 37 -22 13 -48 27 -57 31 -10 3 -18 10 -18 14 0 4 -13 13
-30 20 -16 7 -30 16 -30 21 0 5 -5 9 -11 9 -6 0 -21 8 -34 17 -12 10 -33 25
-45 33 -12 8 -46 33 -75 55 -29 22 -67 51 -85 65 -109 82 -383 345 -470 450
-19 24 -44 52 -54 64 -97 108 -318 438 -379 566 -6 14 -14 27 -17 30 -9 8
-140 290 -140 301 0 6 -6 25 -14 42 -35 77 -49 114 -59 162 -2 6 -5 15 -9 20
-6 9 -27 81 -28 97 -1 4 -7 23 -16 43 -8 19 -14 36 -13 37 3 9 -15 85 -24 96
-5 7 -7 15 -4 18 3 3 1 20 -4 37 -6 18 -12 46 -14 62 -3 17 -7 40 -10 53 -11
48 -13 59 -20 112 -4 30 -9 64 -11 75 -2 11 -6 49 -9 85 -3 36 -8 83 -10 105
-17 134 -5 545 20 700 2 17 7 53 10 80 4 28 8 58 11 67 6 20 10 44 18 93 7 45
26 124 34 145 6 18 5 11 21 80 27 112 53 179 84 216 99 118 227 230 372 325
111 72 295 173 295 162 0 -5 4 -3 8 3 8 11 45 29 132 64 30 12 80 32 110 45
47 19 57 21 71 9 8 -8 21 -14 27 -14z"/>
<path d="M3555 4082 c-2 -2 -16 -5 -32 -6 -150 -15 -282 -145 -311 -306 -35
-194 114 -392 315 -419 29 -4 56 -8 58 -9 3 0 33 6 67 14 65 15 158 69 191
111 10 13 25 29 33 37 18 18 56 112 60 151 4 25 4 69 1 133 0 14 0 14 -138 14
-58 0 -111 3 -117 7 -8 5 -9 18 -2 41 5 19 11 51 14 70 3 19 9 56 14 82 11 56
4 66 -51 70 -20 1 -37 5 -37 8 0 5 -59 7 -65 2z"/>
<path d="M5268 4085 c-3 -4 -12 -8 -20 -9 -149 -30 -274 -156 -294 -297 -27
-197 68 -349 261 -418 57 -20 216 -13 231 10 3 5 10 7 15 4 5 -4 9 -2 9 3 0 5
13 15 30 22 37 15 104 84 134 136 22 40 43 103 45 139 3 49 1 108 -4 114 -4 3
-59 6 -123 7 -142 2 -137 1 -124 17 6 6 10 17 11 22 0 6 3 33 7 60 4 28 7 54
6 59 -2 4 1 13 6 20 4 6 9 26 11 43 3 37 -12 47 -90 58 -24 4 -46 8 -48 10 -1
2 -14 0 -26 -5 -15 -6 -25 -5 -27 1 -2 6 -6 7 -10 4z"/>
<path d="M4020 2618 c-70 -11 -97 -17 -127 -30 -16 -6 -30 -12 -33 -13 -43
-10 -215 -112 -261 -155 -9 -8 -30 -26 -45 -39 -16 -13 -71 -62 -122 -109
-148 -136 -153 -140 -232 -196 -78 -56 -200 -122 -200 -109 0 5 -4 3 -8 -4 -4
-6 -41 -20 -82 -31 -41 -11 -76 -24 -78 -31 -2 -6 1 -11 6 -11 6 0 17 -6 24
-14 18 -17 158 -108 158 -101 0 2 24 -8 53 -23 28 -14 56 -25 61 -24 4 2 13
-2 20 -7 12 -10 95 -35 151 -46 11 -2 29 -6 40 -8 120 -27 332 -28 489 -2 21
4 50 8 65 10 14 2 26 4 26 5 0 1 7 3 15 5 86 17 313 94 318 107 2 4 7 6 12 3
4 -2 45 14 91 37 46 22 89 41 94 41 6 0 40 -14 78 -32 37 -17 69 -31 71 -31 2
0 25 -10 52 -22 27 -12 51 -23 54 -23 3 -1 41 -13 85 -27 84 -28 160 -50 185
-54 8 -1 53 -9 100 -17 135 -24 321 -27 443 -7 40 7 81 13 92 15 35 5 198 62
255 90 76 37 143 78 199 123 l24 19 -24 7 c-13 4 -37 9 -53 12 -16 3 -41 11
-55 16 -14 6 -31 12 -37 13 -56 13 -248 128 -320 192 -17 15 -45 39 -61 53
-17 14 -68 60 -114 102 -130 118 -243 208 -264 208 -4 0 -19 9 -33 19 -15 10
-30 19 -35 20 -4 0 -20 7 -35 14 -73 38 -138 51 -242 51 -106 0 -122 -2 -173
-22 -16 -7 -33 -12 -38 -12 -5 0 -9 -4 -9 -10 0 -5 -6 -10 -13 -10 -14 0 -38
-18 -99 -72 l-41 -38 -51 48 c-44 41 -74 59 -166 102 -42 20 -145 28 -210 18z"/>
</g>
</svg>
